<?xml version="1.0" encoding="UTF-8" standalone="no"?><!DOCTYPE svg PUBLIC "-//W3C//DTD SVG 1.1//EN" "http://www.w3.org/Graphics/SVG/1.1/DTD/svg11.dtd"><svg width="100%" height="100%" viewBox="0 0 267 267" version="1.1" xmlns="http://www.w3.org/2000/svg" xmlns:xlink="http://www.w3.org/1999/xlink" xml:space="preserve" xmlns:serif="http://www.serif.com/" style="fill-rule:evenodd;clip-rule:evenodd;stroke-linejoin:round;stroke-miterlimit:2;"><path d="M229.167,266.667l-191.667,-0c-12.953,-67.399 -13.004,-132.685 0,-195.834l191.667,0c15.672,64.727 15.101,130.025 -0,195.834Zm-183.334,-8.334l175,0c15.556,-60.025 16.365,-119.763 0,-179.166l-175,-0c-13.947,59.722 -13.839,119.444 0,179.166Z" style="fill-rule:nonzero;"/><path d="M179.167,100l-8.334,0l0,-54.167c0,-20.675 -16.825,-37.5 -37.5,-37.5c-20.675,0 -37.5,16.825 -37.5,37.5l0,54.167l-8.333,0l0,-54.167c0,-25.27 20.563,-45.833 45.833,-45.833c25.271,0 45.834,20.563 45.834,45.833l-0,54.167Z" style="fill-rule:nonzero;"/></svg>